<?xml version="1.0" encoding="utf-8"?>
<!-- Generator: Adobe Illustrator 22.1.0, SVG Export Plug-In . SVG Version: 6.00 Build 0)  -->
<svg version="1.1" id="Слой_1" xmlns="http://www.w3.org/2000/svg" xmlns:xlink="http://www.w3.org/1999/xlink" x="0px" y="0px"
	 viewBox="0 0 295 115" style="enable-background:new 0 0 295 115;" xml:space="preserve">
<style type="text/css">
	.st0{fill:#FFFFFF;}
	.st1{fill:none;stroke:#000000;stroke-miterlimit:10;}
</style>
<title>для сайта</title>
<g id="Слой_1_1_">
	<path d="M253.5,15.7c0.1,0,0.2,0,0.2,0c2.7,0.7,5.3,1.4,8,2.1c6.9,1.6,11.4,6.2,12.6,12.7c1.4,7.5,2.6,15.3-0.1,23
		c-1,2.7-0.4,6-0.9,8.9c-0.3,1.4-1.3,3.4-2.3,3.6c-5.2,1.1-10.5,1.8-15.6,2.6c-0.5,0.1-0.9-0.2-1-0.7c-1.3-4.2,0.5-5.2,3.8-5.7
		c2.8-0.4,6.5,0.2,7.7-3.5c0.2-0.7-0.3-1.3-1-1.2c-5.5,0.9-9.7-0.8-12.5-6.3c-0.3-0.7-4.1-0.8-4.7,0c-4.7,6.7-7,7.9-13.9,5.2
		c-0.7-0.3-1.4,0.3-1.3,1c0.6,3.1,3,4.4,6,5c2.4,0.5,5,0.4,7.4,1.1c0.9,0.2,1.5,1.2,2.2,2.1c0.3,0.4,0.2,0.9-0.1,1.2
		c-0.8,0.8-1.6,1.8-2.3,1.8c-6-0.3-11.9-0.8-17.8-1.6c-0.9-0.1-2-2.2-2.1-3.4c-0.6-10.4-1.1-20.8-1.4-31.1c-0.2-6,3.5-9.9,8.2-12.8
		c2.8-1.5,5.8-2.9,8.7-4.2c0.1,0,0.2-0.1,0.4-0.1L253.5,15.7z M246.6,49.9c0.4-1,1.2-1.7,2.3-1.7c3,0,5,1,6.8,3.9
		c1.2,2,4.9,3,7.6,3.2c1,0,2.2-3.7,3.2-5.8c0.6-0.9,0.9-2,1-3.1c0-0.1,0-0.1,0-0.2c-0.2-2.1-0.1-4.8-1.4-5.9
		c-3.5-3.3-7.6-5.9-11.5-8.8c-2.5-1.9-4.5-1.6-7,0.3c-4,3-8.5,5.3-12.5,8.2c-1.4,1.1-2.4,2.7-2.7,4.5c-0.4,2.1-0.2,4.3,0.6,6.3
		c0,0,0,0.1,0.1,0.1c1.1,2.1,3.1,4.8,5,4.9c2.3,0.2,4.8-1.8,6.9-3.3C245.6,52.1,246,51.2,246.6,49.9z M269.5,51.5c0,0.6,0.4,1,1,1
		c3.5-0.3,3.9-2.9,3.8-5.3c-0.1-0.8-1.4-1.5-3-2.7c-0.6-0.4-1.4,0-1.4,0.7C269.7,47.9,269.6,49.7,269.5,51.5z M228.9,44.2
		c-0.7,0.4-1.4,0.7-1.8,1c-0.4,0.2-0.5,0.7-0.4,1.1c0.5,1.4,1.1,2.7,1.9,4c0.2,0.4,0.8,0.6,1.2,0.4l0,0c0.3-0.1,0.5-0.5,0.5-0.8V45
		C230.3,44.3,229.5,43.8,228.9,44.2z"/>
	<path class="st0" d="M247.2,47.3c-0.4,0-0.7,0.3-0.8,0.6c-0.5,1.5-0.7,3.3-1.7,4c-2.1,1.5-4.8,3.4-7.1,3.1c-1.9-0.2-4-2.9-5-5
		c-0.8-2-1.1-4.2-0.6-6.4c0.3-1.8,1.3-3.4,2.7-4.5c4-2.9,8.5-5.2,12.5-8.2c2.5-1.9,4.6-2.2,7.1-0.3c3.8,2.9,8,5.5,11.5,8.8
		c1.2,1.2,1.2,3.9,1.4,5.9c0,0.1,0,0.1,0,0.2c-0.1,1.1-0.4,2.1-1,3.1c-1,2.1-2.2,5.9-3.2,5.8c-2.7-0.1-6.4-1.2-7.6-3.2
		C253.3,48,250.9,47.1,247.2,47.3z"/>
	<path class="st0" d="M269.5,51.5c0.1-1.9,0.2-3.7,0.3-6.2c0-0.7,0.9-1.1,1.4-0.7c1.6,1.1,3,1.8,3,2.7c0.1,2.4-0.2,5-3.8,5.3
		C270,52.6,269.5,52.1,269.5,51.5z"/>
	<path class="st0" d="M230.3,45v4.9c0,0.4-0.2,0.7-0.5,0.8l0,0c-0.4,0.2-1,0-1.2-0.4c-0.7-1.3-1.3-2.6-1.9-4c-0.2-0.4,0-0.9,0.4-1.1
		c0.5-0.3,1.1-0.6,1.9-1C229.5,43.8,230.3,44.3,230.3,45z"/>
	<path class="st0" d="M194.9,27.9c-1.3-0.9-0.6-0.8-1.4-0.4c-1,0.5-1.7,1.7-2.3,2.6c-1.6,2.5-2.8,5.1-3.7,7.9
		c-1.1,3.1-2.1,6.3-1.9,9.7c0.3,3,1,5.9,2.2,8.6c0.2,0.5,0.8,0.7,1.2,0.5c0.2-0.1,0.4-0.2,0.6-0.3c3.1-1,6.4-1.4,9.7-1.1
		c0.3,0,0.6-0.1,0.8-0.3c1.9-2.1,2.8-4.9,2.6-7.7C202.3,41.6,200,31.5,194.9,27.9z"/>
	<path d="M261.2,50.2c-0.1,0.6-1.5,0.6-1.9,0.6c-2.6,0-2.6-7.7-0.6-8.7c0.5-0.1,0.9-0.2,1.4,0C262.8,43.3,261.8,46.9,261.2,50.2z"/>
	<path d="M239.3,50.4c-1.4-1.2-1.4-5.5-0.6-7.6c0.6-0.8,1.4-0.6,2.2-0.2c1.8,1.3,2,6.8,0.3,7.8C240.7,50.8,240.2,50.8,239.3,50.4z"
		/>
	<path class="st1" d="M244.7,58.3c1.8,1.1,3.7,1.8,5.8,2c2.8,0.2,5.5-2.6,5.5-2.6"/>
</g>
<g id="Слой_2_1_">
	<path d="M48.9,51.8c-0.5,4.5-2,7.9-4.5,10.3c-2.6,2.4-6,3.6-10.3,3.6c-2.8,0-5.6-0.8-7.9-2.4c-2.4-1.7-4.2-4-5.3-6.7
		c-1.3-3.2-1.9-6.5-1.9-9.9v-5.5c-0.1-3.5,0.6-6.9,1.9-10.1c1.1-2.7,3-5.1,5.4-6.8c2.4-1.6,5.2-2.4,8.1-2.4c4.3,0,7.7,1.2,10.2,3.7
		c2.5,2.5,3.9,5.9,4.4,10.2h-3.4C44.6,28.6,40.9,25,34.4,25c-3.4-0.1-6.7,1.5-8.7,4.3c-2.2,2.9-3.2,6.9-3.2,12v5.2
		c0,4.9,1,8.8,3.1,11.8c1.9,2.8,5.1,4.5,8.5,4.4c3.6,0,6.2-0.9,8-2.7c1.8-1.8,2.9-4.5,3.3-8.1L48.9,51.8z"/>
	<path d="M78.6,53.2H60.3l-4.1,12h-3.5l15.2-42.6h3.3l15.2,42.6h-3.5L78.6,53.2z M61.4,50.1h16.1l-8-23.2L61.4,50.1z"/>
	<path d="M95.3,22.5v39.6h16V22.5h3.4v39.6h16V22.5h3.4v42.6H91.8V22.5H95.3z"/>
	<path d="M152.9,45.1h-5.5v20H144V22.5h3.4v19.6h5.3l15.5-19.6h4.3l-16.5,21l17.7,21.7h-4.2L152.9,45.1z"/>
	<path d="M208.5,46.1c0.1,3.5-0.6,7.1-1.9,10.3c-1.1,2.8-3,5.2-5.5,6.9c-2.4,1.6-5.3,2.5-8.2,2.4c-4.4,0.1-8.6-1.9-11.3-5.4
		c-2.9-3.6-4.3-8.4-4.3-14.4v-4.4c-0.1-3.5,0.6-7.1,2-10.3c1.1-2.8,3-5.2,5.5-6.9c5-3.2,11.4-3.2,16.3,0c2.4,1.7,4.3,4,5.5,6.7
		c1.3,3.2,2,6.6,2,10L208.5,46.1z M205.1,41.5c0-5.1-1.1-9.2-3.3-12.1c-3.8-4.9-11-5.8-15.9-2c-0.7,0.6-1.4,1.2-2,2
		c-2.2,2.9-3.3,7-3.3,12.2v4.5c0,5.1,1.1,9.1,3.3,12c3.8,5,11,5.9,15.9,2c0.8-0.6,1.4-1.3,2-2c2.1-2.9,3.2-6.9,3.2-12.1V41.5z"/>
	<path d="M25,95.5c0.7,0,1.4-0.2,2-0.6c0.5-0.4,0.9-1.1,0.9-1.8h0.4c0,0.8-0.4,1.6-1,2.1c-0.7,0.5-1.5,0.8-2.4,0.8
		c-1,0-2-0.4-2.7-1.2c-0.7-1-1.1-2.1-1-3.3v-0.3c-0.1-1.2,0.3-2.3,1-3.3c0.7-0.8,1.6-1.3,2.7-1.2c0.9,0,1.7,0.3,2.4,0.9
		c0.6,0.6,1,1.4,1,2.3h-0.4c0-0.7-0.3-1.4-0.9-1.9c-0.6-0.5-1.3-0.8-2.1-0.7c-0.9,0-1.8,0.4-2.4,1.1c-0.6,0.9-0.9,1.9-0.9,3v0.3
		c-0.1,1.1,0.2,2.1,0.9,3C23.2,95.2,24,95.6,25,95.5z"/>
	<path d="M33.9,96c-0.7,0-1.4-0.2-2-0.6c-0.6-0.4-1.1-1-1.4-1.6c-0.3-0.7-0.5-1.5-0.5-2.3v-0.4c0-0.8,0.2-1.6,0.5-2.3
		c0.3-0.7,0.8-1.2,1.4-1.6c0.6-0.4,1.2-0.6,1.9-0.6c0.9,0,1.9,0.4,2.5,1.1c0.7,0.8,1,1.8,1,2.8V91h-6.8v0.5c0,0.7,0.2,1.4,0.5,2
		c0.3,0.6,0.7,1.1,1.3,1.5c0.5,0.3,1.1,0.5,1.8,0.5c0.5,0,1.1-0.1,1.6-0.3c0.4-0.2,0.8-0.5,1.1-0.9l0.3,0.2
		C36.2,95.5,35.1,96.1,33.9,96z M33.7,87.1c-0.9,0-1.7,0.4-2.3,1c-0.6,0.7-1,1.6-1.1,2.5h6.3v-0.1c0-0.6-0.1-1.2-0.4-1.7
		c-0.2-0.5-0.6-0.9-1.1-1.2C34.8,87.3,34.2,87.1,33.7,87.1L33.7,87.1z"/>
	<path d="M46.2,91.4c0.1,1.2-0.3,2.4-0.9,3.3c-0.6,0.8-1.5,1.3-2.5,1.2c-0.6,0-1.3-0.1-1.8-0.4c-0.5-0.3-0.9-0.7-1.3-1.1v4.8h-0.4
		V86.8h0.4v1.6c0.3-0.5,0.7-1,1.3-1.3c0.6-0.3,1.2-0.5,1.8-0.5c1,0,1.9,0.4,2.5,1.2c0.7,1,1,2.2,0.9,3.4V91.4z M45.7,91.2
		c0.1-1.1-0.2-2.1-0.8-3c-0.5-0.7-1.3-1.1-2.2-1.1c-0.7,0-1.4,0.2-1.9,0.6c-0.6,0.4-1,1-1.1,1.7v4.2c0.2,0.6,0.6,1.1,1.2,1.4
		c0.6,0.4,1.3,0.5,2,0.5c0.9,0,1.7-0.4,2.2-1.1C45.6,93.5,45.8,92.4,45.7,91.2L45.7,91.2z"/>
	<path d="M48.7,95.8v-9h3.1c0.9-0.1,1.8,0.2,2.5,0.6c0.9,0.7,1.1,2,0.4,3c0,0,0,0,0,0c-0.3,0.4-0.8,0.7-1.3,0.7l0,0
		c0.6,0.1,1.1,0.3,1.5,0.7c0.4,0.4,0.6,0.9,0.6,1.5c0,0.7-0.3,1.4-0.9,1.8c-0.7,0.5-1.6,0.7-2.4,0.6L48.7,95.8z M49.2,91.1H52
		c0.7,0,1.5-0.1,2.1-0.5c0.5-0.3,0.7-0.9,0.7-1.4c0-0.6-0.3-1.1-0.8-1.4c-0.7-0.3-1.4-0.5-2.2-0.4h-2.7L49.2,91.1z M49.2,91.5v3.9
		h3.3c0.7,0,1.4-0.1,2-0.5c0.5-0.3,0.8-0.9,0.7-1.5c0-0.6-0.3-1.1-0.8-1.4c-0.6-0.4-1.3-0.6-2-0.5H49.2z"/>
	<path d="M64.1,86.8h0.5v9h-0.5v-8.2l-5.6,8.2H58v-9h0.5V95L64.1,86.8z"/>
	<path d="M70.5,95.5c0.7,0,1.4-0.2,2-0.6c0.5-0.4,0.9-1.1,0.9-1.8h0.5c0,0.8-0.4,1.6-1,2.1c-0.7,0.5-1.5,0.8-2.4,0.8
		c-1,0-2-0.4-2.7-1.2c-0.7-1-1.1-2.1-1-3.3v-0.3c-0.1-1.2,0.3-2.3,1-3.3c0.7-0.8,1.6-1.3,2.7-1.2c0.9,0,1.7,0.3,2.4,0.9
		c0.6,0.6,1,1.4,1,2.3h-0.5c0-0.7-0.3-1.4-0.9-1.9c-0.6-0.5-1.3-0.8-2.1-0.7c-0.9,0-1.8,0.4-2.4,1.1c-0.6,0.9-0.9,1.9-0.9,3v0.3
		c-0.1,1.1,0.2,2.1,0.9,3C68.7,95.2,69.6,95.6,70.5,95.5z"/>
	<path d="M79.9,95.4l0.3-0.4c0.9-1.4,1.4-3.1,1.4-4.8l0.2-3.3h4.9v8.5h0.7v3.1H87v-2.6h-7.3v2.6h-0.4v-3.1L79.9,95.4z M80.5,95.4
		h5.8v-8.1h-4l-0.2,3C82.1,92.1,81.5,93.9,80.5,95.4z"/>
	<path d="M96.1,86.8v9h-0.5v-8.5h-4.4l-0.2,4.2c0,1.2-0.2,2.3-0.6,3.4c-0.3,0.6-1,1-1.6,1h-0.3v-0.5h0.4c0.6,0,1.1-0.4,1.3-0.9
		c0.3-0.9,0.5-1.9,0.5-2.9l0.2-4.8L96.1,86.8z"/>
	<path d="M105.3,86.8v9h-0.5v-3.7h-3.3l-2.3,3.7h-0.5L101,92c-0.6-0.1-1.2-0.4-1.5-0.9c-0.4-0.5-0.6-1.1-0.6-1.7
		c0-0.7,0.3-1.4,0.8-1.9c0.6-0.5,1.4-0.8,2.2-0.7L105.3,86.8z M99.3,89.5c0,0.6,0.2,1.1,0.6,1.6c0.4,0.4,1,0.6,1.6,0.6h3.3v-4.3
		h-2.9c-0.7,0-1.4,0.2-1.9,0.6C99.5,88.3,99.3,88.9,99.3,89.5L99.3,89.5z"/>
	<path d="M118,89.1c0-0.6-0.2-1.1-0.7-1.5c-0.6-0.4-1.3-0.6-2.1-0.5c-0.7,0-1.4,0.2-2,0.6c-0.5,0.3-0.8,0.9-0.8,1.5h-0.5
		c0-0.7,0.4-1.4,1-1.8c0.7-0.5,1.5-0.7,2.3-0.7c0.8-0.1,1.7,0.2,2.4,0.7c0.6,0.4,0.9,1.1,0.9,1.8c0,0.5-0.2,0.9-0.5,1.3
		c-0.3,0.4-0.8,0.7-1.3,0.8c1.1,0.1,2,1.1,1.9,2.2c0,0.7-0.3,1.4-0.9,1.9c-0.7,0.5-1.6,0.7-2.5,0.7c-0.6,0-1.2-0.1-1.7-0.3
		c-0.5-0.2-0.9-0.5-1.3-0.9c-0.3-0.4-0.5-0.9-0.5-1.4h0.5c0,0.6,0.3,1.2,0.8,1.6c0.6,0.4,1.4,0.7,2.1,0.6c0.8,0,1.5-0.1,2.2-0.6
		c0.5-0.4,0.8-0.9,0.7-1.5c0.1-0.6-0.2-1.2-0.7-1.5c-0.7-0.4-1.4-0.5-2.2-0.5H114V91h1.4C117.1,91,118,90.4,118,89.1z"/>
	<path d="M126.9,95.8c-0.1-0.5-0.2-1.1-0.2-1.6c-0.4,0.6-0.9,1-1.5,1.3c-0.7,0.3-1.4,0.5-2.1,0.5c-0.7,0-1.4-0.2-2-0.7
		c-1-0.9-1-2.4-0.1-3.3c0.1-0.2,0.3-0.3,0.5-0.4c0.9-0.5,1.9-0.8,3-0.8h2.2v-1.3c0-0.7-0.2-1.3-0.7-1.8c-0.6-0.4-1.3-0.7-2-0.6
		c-0.7,0-1.5,0.2-2.1,0.6c-0.5,0.4-0.8,0.9-0.8,1.6h-0.5c0-0.7,0.4-1.4,1-1.9c0.7-0.5,1.5-0.8,2.4-0.8c0.8,0,1.7,0.2,2.3,0.7
		c0.6,0.5,0.9,1.3,0.9,2v4.3c0,0.7,0,1.4,0.2,2v0.1H126.9z M123.1,95.5c0.8,0,1.5-0.2,2.2-0.6c0.6-0.4,1.1-0.9,1.4-1.6v-2.1h-2.1
		c-1.1-0.1-2.1,0.2-3,0.8c-0.5,0.3-0.8,0.9-0.8,1.5c0,0.5,0.2,1.1,0.7,1.4C121.9,95.4,122.5,95.6,123.1,95.5L123.1,95.5z"/>
	<path d="M132.2,91.4h-1.7v4.4h-0.4v-9h0.5V91h1.8l3.6-4.1h0.7l-3.9,4.4l4.4,4.6h-0.7L132.2,91.4z"/>
	<path d="M144.4,95.8c-0.1-0.5-0.2-1.1-0.2-1.6c-0.4,0.6-0.9,1-1.5,1.3c-0.7,0.3-1.4,0.5-2.1,0.5c-0.7,0-1.4-0.2-2-0.7
		c-1-0.9-1-2.4-0.1-3.3c0.1-0.2,0.3-0.3,0.5-0.4c0.9-0.5,1.9-0.8,3-0.8h2.2v-1.3c0-0.7-0.2-1.3-0.7-1.8c-0.6-0.5-1.3-0.7-2-0.6
		c-0.7,0-1.5,0.2-2.1,0.6c-0.5,0.4-0.8,0.9-0.8,1.6h-0.5c0-0.7,0.4-1.4,1-1.9c0.7-0.5,1.5-0.8,2.4-0.8c0.8,0,1.7,0.2,2.3,0.7
		c0.6,0.5,0.9,1.3,0.9,2v4.3c0,0.7,0,1.4,0.2,2v0.1H144.4z M140.7,95.5c0.8,0,1.5-0.2,2.2-0.6c0.6-0.4,1.1-0.9,1.4-1.6v-2.1h-2.1
		c-1.1-0.1-2.1,0.2-3,0.8c-0.5,0.3-0.8,0.9-0.8,1.5c0,0.5,0.2,1.1,0.7,1.4C139.5,95.4,140.1,95.6,140.7,95.5z"/>
	<path d="M153.3,89.1c0-0.6-0.2-1.1-0.7-1.5c-0.6-0.4-1.3-0.6-2.1-0.5c-0.7,0-1.4,0.2-2,0.6c-0.5,0.3-0.8,0.9-0.8,1.5h-0.5
		c0-0.7,0.4-1.4,1-1.8c0.7-0.5,1.5-0.7,2.3-0.7c0.8-0.1,1.7,0.2,2.4,0.7c0.6,0.4,0.9,1.1,0.8,1.8c0,0.5-0.2,0.9-0.5,1.3
		c-0.3,0.4-0.8,0.7-1.3,0.8c1.1,0.1,2,1.1,1.9,2.2c0,0.7-0.3,1.4-0.9,1.9c-0.7,0.5-1.6,0.7-2.5,0.7c-0.6,0-1.2-0.1-1.7-0.3
		c-0.5-0.2-0.9-0.5-1.3-0.9c-0.3-0.4-0.5-0.9-0.5-1.4h0.5c0,0.6,0.3,1.2,0.8,1.6c0.6,0.4,1.4,0.7,2.1,0.6c0.8,0.1,1.5-0.1,2.2-0.6
		c0.5-0.4,0.8-0.9,0.7-1.5c0.1-0.6-0.2-1.2-0.7-1.5c-0.7-0.4-1.4-0.5-2.2-0.5h-1.3V91h1.4C152.4,91,153.3,90.4,153.3,89.1z"/>
	<path d="M162.2,95.8c-0.1-0.5-0.2-1.1-0.2-1.6c-0.4,0.6-0.9,1-1.5,1.3c-0.7,0.3-1.4,0.5-2.1,0.5c-0.7,0-1.4-0.2-2-0.7
		c-1-0.9-1-2.4-0.1-3.3c0.1-0.2,0.3-0.3,0.5-0.4c0.9-0.5,1.9-0.8,3-0.8h2.2v-1.3c0-0.7-0.2-1.3-0.7-1.8c-0.6-0.4-1.3-0.7-2-0.6
		c-0.7,0-1.5,0.2-2.1,0.6c-0.5,0.4-0.8,0.9-0.8,1.6h-0.5c0-0.7,0.4-1.4,1-1.9c0.7-0.5,1.5-0.8,2.4-0.8c0.8,0,1.7,0.2,2.3,0.7
		c0.6,0.5,0.9,1.3,0.9,2v4.3c0,0.7,0,1.4,0.2,2v0.1H162.2z M158.4,95.5c0.8,0,1.5-0.2,2.2-0.6c0.6-0.4,1.1-0.9,1.4-1.6v-2.1h-2.1
		c-1.1-0.1-2.1,0.2-3,0.8c-0.5,0.3-0.8,0.9-0.8,1.5c0,0.5,0.2,1.1,0.7,1.4C157.2,95.4,157.8,95.6,158.4,95.5z"/>
	<path d="M175.6,86.8h0.5v9h-0.5v-8.2l-5.6,8.2h-0.5v-9h0.5V95L175.6,86.8z"/>
	<path d="M185.4,86.8v9H185v-8.5h-4.3l-0.2,4.2c0,1.2-0.2,2.3-0.6,3.4c-0.3,0.6-1,1-1.6,1h-0.3v-0.5h0.4c0.6,0,1.1-0.4,1.3-0.9
		c0.3-0.9,0.5-1.9,0.5-2.9l0.2-4.8L185.4,86.8z"/>
	<path d="M194.8,86.8v9h-0.5v-8.5H190l-0.2,4.2c0,1.2-0.2,2.3-0.6,3.4c-0.3,0.6-1,1-1.6,1h-0.3v-0.5h0.4c0.6,0,1.1-0.4,1.3-0.9
		c0.3-0.9,0.5-1.9,0.5-2.9l0.2-4.8L194.8,86.8z"/>
	<path d="M198.2,91.2h3c-0.1-1.2,0.3-2.4,1.1-3.3c0.7-0.8,1.8-1.3,2.9-1.3c0.7,0,1.4,0.2,2,0.6c0.6,0.4,1.1,0.9,1.4,1.6
		c0.3,0.7,0.5,1.5,0.5,2.3v0.4c0,0.8-0.2,1.6-0.5,2.3c-0.3,0.7-0.8,1.2-1.4,1.6c-0.6,0.4-1.3,0.6-2.1,0.6c-1.4,0-2.8-0.8-3.4-2.1
		c-0.4-0.7-0.5-1.5-0.5-2.3h-3v4.2h-0.5v-9h0.5L198.2,91.2z M201.7,91.5c0,0.7,0.1,1.4,0.5,2.1c0.3,0.6,0.7,1.1,1.3,1.5
		c0.5,0.3,1.2,0.5,1.8,0.5c1,0,1.9-0.4,2.5-1.2c0.7-0.8,1-1.9,1-3v-0.3c0-0.7-0.2-1.4-0.5-2c-0.3-0.6-0.7-1.1-1.3-1.5
		c-0.5-0.4-1.2-0.5-1.8-0.5c-1,0-1.9,0.4-2.5,1.2c-0.7,0.8-1,1.9-1,3V91.5z"/>
	<path d="M214.7,95.5c0.7,0,1.4-0.2,2-0.6c0.5-0.4,0.9-1.1,0.9-1.8h0.6c0,0.8-0.4,1.6-1,2.1c-0.7,0.5-1.5,0.8-2.4,0.8
		c-1,0-2-0.4-2.7-1.2c-0.7-1-1.1-2.1-1-3.3v-0.3c-0.1-1.2,0.3-2.3,1-3.3c0.7-0.8,1.7-1.3,2.7-1.2c0.9,0,1.7,0.3,2.4,0.9
		c0.6,0.6,1,1.4,1,2.3h-0.5c0-0.7-0.3-1.4-0.9-1.9c-0.6-0.5-1.3-0.8-2.1-0.7c-0.9,0-1.8,0.4-2.4,1.1c-0.6,0.9-0.9,1.9-0.9,3v0.3
		c-0.1,1.1,0.2,2.1,0.9,3C212.9,95.2,213.8,95.6,214.7,95.5z"/>
	<path d="M226.6,87.3h-3.6v8.5h-0.5v-8.5h-3.4v-0.5h7.4L226.6,87.3z"/>
	<path d="M235.3,91.4c0.1,1.2-0.3,2.4-0.9,3.3c-0.6,0.8-1.5,1.3-2.5,1.2c-0.6,0-1.3-0.1-1.8-0.4c-0.5-0.3-1-0.7-1.3-1.1v4.8h-0.5
		V86.8h0.5v1.6c0.3-0.5,0.7-1,1.3-1.3c0.6-0.3,1.2-0.5,1.8-0.5c1,0,1.9,0.4,2.5,1.2c0.7,1,1,2.2,0.9,3.4V91.4z M234.9,91.2
		c0.1-1.1-0.2-2.1-0.8-3c-0.5-0.7-1.3-1.1-2.2-1.1c-1.4-0.1-2.7,0.9-3.1,2.3v4.2c0.2,0.6,0.6,1.1,1.1,1.4c0.6,0.4,1.3,0.5,2,0.5
		c0.9,0,1.7-0.4,2.2-1.1C234.7,93.5,234.9,92.4,234.9,91.2L234.9,91.2z"/>
	<path d="M243.7,95.8c-0.1-0.5-0.2-1.1-0.2-1.6c-0.4,0.6-0.9,1-1.5,1.3c-0.7,0.3-1.4,0.5-2.1,0.5c-0.7,0-1.4-0.2-2-0.7
		c-1-0.9-1-2.3-0.2-3.3c0.2-0.2,0.3-0.3,0.5-0.4c0.9-0.5,1.9-0.8,3-0.8h2.2v-1.3c0-0.7-0.2-1.3-0.7-1.8c-0.6-0.4-1.3-0.7-2-0.6
		c-0.7,0-1.5,0.2-2.1,0.6c-0.5,0.3-0.8,0.9-0.8,1.6h-0.5c0-0.7,0.4-1.4,1-1.9c0.7-0.5,1.5-0.8,2.4-0.8c0.8,0,1.7,0.2,2.3,0.7
		c0.6,0.5,0.9,1.3,0.9,2v4.3c0,0.7,0,1.4,0.2,2v0.1H243.7z M239.9,95.5c0.8,0,1.5-0.2,2.2-0.6c0.6-0.4,1.1-0.9,1.4-1.6v-2.1h-2.1
		c-1.1-0.1-2.1,0.2-3,0.8c-0.5,0.3-0.8,0.9-0.8,1.5c0,0.5,0.2,1.1,0.7,1.4C238.7,95.4,239.3,95.6,239.9,95.5L239.9,95.5z"/>
	<path d="M246.9,86.8h0.5v8.5h5.6v-8.5h0.5v8.5h0.7v3.1h-0.5v-2.6h-6.8L246.9,86.8z"/>
	<path d="M262.3,86.8h0.5v9h-0.5v-8.2l-5.6,8.2h-0.5v-9h0.5V95L262.3,86.8z"/>
	<path d="M271.7,86.8h0.5v9h-0.5v-8.2l-5.6,8.2h-0.5v-9h0.5V95L271.7,86.8z M271.2,83.6c0,0.6-0.2,1.1-0.6,1.5
		c-0.5,0.4-1.1,0.6-1.7,0.6c-0.6,0-1.2-0.2-1.7-0.6c-0.4-0.4-0.7-0.9-0.6-1.5h0.5c0,0.4,0.2,0.9,0.5,1.2c0.4,0.3,0.9,0.5,1.4,0.4
		c0.5,0,1-0.1,1.4-0.4c0.3-0.3,0.5-0.7,0.5-1.2H271.2z"/>
</g>
</svg>
