<?xml version="1.0" encoding="UTF-8" standalone="no"?>
<!-- Generator: Adobe Illustrator 22.1.0, SVG Export Plug-In . SVG Version: 6.00 Build 0)  -->

<svg
   xmlns:dc="http://purl.org/dc/elements/1.1/"
   xmlns:cc="http://creativecommons.org/ns#"
   xmlns:rdf="http://www.w3.org/1999/02/22-rdf-syntax-ns#"
   xmlns:svg="http://www.w3.org/2000/svg"
   xmlns="http://www.w3.org/2000/svg"
   xmlns:sodipodi="http://sodipodi.sourceforge.net/DTD/sodipodi-0.dtd"
   xmlns:inkscape="http://www.inkscape.org/namespaces/inkscape"
   version="1.1"
   id="Слой_1"
   x="0px"
   y="0px"
   viewBox="0 0 257 88"
   xml:space="preserve"
   sodipodi:docname="logo.svg"
   width="257"
   height="88"
   inkscape:version="0.92.4 (f8dce91, 2019-08-02)"><metadata
   id="metadata3931"><rdf:RDF><cc:Work
       rdf:about=""><dc:format>image/svg+xml</dc:format><dc:type
         rdf:resource="http://purl.org/dc/dcmitype/StillImage" /><dc:title>для сайта</dc:title></cc:Work></rdf:RDF></metadata><defs
   id="defs3929" /><sodipodi:namedview
   pagecolor="#ffffff"
   bordercolor="#666666"
   borderopacity="1"
   objecttolerance="10"
   gridtolerance="10"
   guidetolerance="10"
   inkscape:pageopacity="0"
   inkscape:pageshadow="2"
   inkscape:window-width="1853"
   inkscape:window-height="1025"
   id="namedview3927"
   showgrid="false"
   inkscape:zoom="4.0317071"
   inkscape:cx="96.317782"
   inkscape:cy="47.401822"
   inkscape:window-x="67"
   inkscape:window-y="27"
   inkscape:window-maximized="1"
   inkscape:current-layer="Слой_1" />
<style
   type="text/css"
   id="style3842">
	.st0{fill:#FFFFFF;}
	.st1{fill:none;stroke:#000000;stroke-miterlimit:10;}
</style>
<title
   id="title3844">для сайта</title>
<g
   id="Слой_1_1_"
   transform="matrix(1,0,0,1.0325581,-18.904493,-14.914152)">
	<path
   d="m 253.5,15.7 c 0.1,0 0.2,0 0.2,0 2.7,0.7 5.3,1.4 8,2.1 6.9,1.6 11.4,6.2 12.6,12.7 1.4,7.5 2.6,15.3 -0.1,23 -1,2.7 -0.4,6 -0.9,8.9 -0.3,1.4 -1.3,3.4 -2.3,3.6 -5.2,1.1 -10.5,1.8 -15.6,2.6 -0.5,0.1 -0.9,-0.2 -1,-0.7 -1.3,-4.2 0.5,-5.2 3.8,-5.7 2.8,-0.4 6.5,0.2 7.7,-3.5 0.2,-0.7 -0.3,-1.3 -1,-1.2 -5.5,0.9 -9.7,-0.8 -12.5,-6.3 -0.3,-0.7 -4.1,-0.8 -4.7,0 -4.7,6.7 -7,7.9 -13.9,5.2 -0.7,-0.3 -1.4,0.3 -1.3,1 0.6,3.1 3,4.4 6,5 2.4,0.5 5,0.4 7.4,1.1 0.9,0.2 1.5,1.2 2.2,2.1 0.3,0.4 0.2,0.9 -0.1,1.2 -0.8,0.8 -1.6,1.8 -2.3,1.8 -6,-0.3 -11.9,-0.8 -17.8,-1.6 -0.9,-0.1 -2,-2.2 -2.1,-3.4 -0.6,-10.4 -1.1,-20.8 -1.4,-31.1 -0.2,-6 3.5,-9.9 8.2,-12.8 2.8,-1.5 5.8,-2.9 8.7,-4.2 0.1,0 0.2,-0.1 0.4,-0.1 z m -6.9,34.2 c 0.4,-1 1.2,-1.7 2.3,-1.7 3,0 5,1 6.8,3.9 1.2,2 4.9,3 7.6,3.2 1,0 2.2,-3.7 3.2,-5.8 0.6,-0.9 0.9,-2 1,-3.1 0,-0.1 0,-0.1 0,-0.2 -0.2,-2.1 -0.1,-4.8 -1.4,-5.9 -3.5,-3.3 -7.6,-5.9 -11.5,-8.8 -2.5,-1.9 -4.5,-1.6 -7,0.3 -4,3 -8.5,5.3 -12.5,8.2 -1.4,1.1 -2.4,2.7 -2.7,4.5 -0.4,2.1 -0.2,4.3 0.6,6.3 0,0 0,0.1 0.1,0.1 1.1,2.1 3.1,4.8 5,4.9 2.3,0.2 4.8,-1.8 6.9,-3.3 0.6,-0.4 1,-1.3 1.6,-2.6 z m 22.9,1.6 c 0,0.6 0.4,1 1,1 3.5,-0.3 3.9,-2.9 3.8,-5.3 -0.1,-0.8 -1.4,-1.5 -3,-2.7 -0.6,-0.4 -1.4,0 -1.4,0.7 -0.2,2.7 -0.3,4.5 -0.4,6.3 z m -40.6,-7.3 c -0.7,0.4 -1.4,0.7 -1.8,1 -0.4,0.2 -0.5,0.7 -0.4,1.1 0.5,1.4 1.1,2.7 1.9,4 0.2,0.4 0.8,0.6 1.2,0.4 v 0 c 0.3,-0.1 0.5,-0.5 0.5,-0.8 V 45 c 0,-0.7 -0.8,-1.2 -1.4,-0.8 z"
   id="path3846"
   inkscape:connector-curvature="0" />
	<path
   class="st0"
   d="m 247.2,47.3 c -0.4,0 -0.7,0.3 -0.8,0.6 -0.5,1.5 -0.7,3.3 -1.7,4 -2.1,1.5 -4.8,3.4 -7.1,3.1 -1.9,-0.2 -4,-2.9 -5,-5 -0.8,-2 -1.1,-4.2 -0.6,-6.4 0.3,-1.8 1.3,-3.4 2.7,-4.5 4,-2.9 8.5,-5.2 12.5,-8.2 2.5,-1.9 4.6,-2.2 7.1,-0.3 3.8,2.9 8,5.5 11.5,8.8 1.2,1.2 1.2,3.9 1.4,5.9 0,0.1 0,0.1 0,0.2 -0.1,1.1 -0.4,2.1 -1,3.1 -1,2.1 -2.2,5.9 -3.2,5.8 -2.7,-0.1 -6.4,-1.2 -7.6,-3.2 -2.1,-3.2 -4.5,-4.1 -8.2,-3.9 z"
   id="path3848"
   inkscape:connector-curvature="0"
   style="fill:#ffffff" />
	<path
   class="st0"
   d="m 269.5,51.5 c 0.1,-1.9 0.2,-3.7 0.3,-6.2 0,-0.7 0.9,-1.1 1.4,-0.7 1.6,1.1 3,1.8 3,2.7 0.1,2.4 -0.2,5 -3.8,5.3 -0.4,0 -0.9,-0.5 -0.9,-1.1 z"
   id="path3850"
   inkscape:connector-curvature="0"
   style="fill:#ffffff" />
	<path
   class="st0"
   d="m 230.3,45 v 4.9 c 0,0.4 -0.2,0.7 -0.5,0.8 v 0 c -0.4,0.2 -1,0 -1.2,-0.4 -0.7,-1.3 -1.3,-2.6 -1.9,-4 -0.2,-0.4 0,-0.9 0.4,-1.1 0.5,-0.3 1.1,-0.6 1.9,-1 0.5,-0.4 1.3,0.1 1.3,0.8 z"
   id="path3852"
   inkscape:connector-curvature="0"
   style="fill:#ffffff" />
	<path
   class="st0"
   d="m 194.9,27.9 c -1.3,-0.9 -0.6,-0.8 -1.4,-0.4 -1,0.5 -1.7,1.7 -2.3,2.6 -1.6,2.5 -2.8,5.1 -3.7,7.9 -1.1,3.1 -2.1,6.3 -1.9,9.7 0.3,3 1,5.9 2.2,8.6 0.2,0.5 0.8,0.7 1.2,0.5 0.2,-0.1 0.4,-0.2 0.6,-0.3 3.1,-1 6.4,-1.4 9.7,-1.1 0.3,0 0.6,-0.1 0.8,-0.3 1.9,-2.1 2.8,-4.9 2.6,-7.7 -0.4,-5.8 -2.7,-15.9 -7.8,-19.5 z"
   id="path3854"
   inkscape:connector-curvature="0"
   style="fill:#ffffff" />
	<path
   d="m 261.2,50.2 c -0.1,0.6 -1.5,0.6 -1.9,0.6 -2.6,0 -2.6,-7.7 -0.6,-8.7 0.5,-0.1 0.9,-0.2 1.4,0 2.7,1.2 1.7,4.8 1.1,8.1 z"
   id="path3856"
   inkscape:connector-curvature="0" />
	<path
   d="m 239.3,50.4 c -1.4,-1.2 -1.4,-5.5 -0.6,-7.6 0.6,-0.8 1.4,-0.6 2.2,-0.2 1.8,1.3 2,6.8 0.3,7.8 -0.5,0.4 -1,0.4 -1.9,0 z"
   id="path3858"
   inkscape:connector-curvature="0" />
	<path
   class="st1"
   d="m 244.7,58.3 c 1.8,1.1 3.7,1.8 5.8,2 2.8,0.2 5.5,-2.6 5.5,-2.6"
   id="path3860"
   inkscape:connector-curvature="0"
   style="fill:none;stroke:#000000;stroke-miterlimit:10" />
</g>
<g
   id="Слой_2_1_"
   transform="matrix(1,0,0,1.0325581,-18.904493,-14.914152)">
	<path
   d="m 48.9,51.8 c -0.5,4.5 -2,7.9 -4.5,10.3 -2.6,2.4 -6,3.6 -10.3,3.6 -2.8,0 -5.6,-0.8 -7.9,-2.4 C 23.8,61.6 22,59.3 20.9,56.6 19.6,53.4 19,50.1 19,46.7 v -5.5 c -0.1,-3.5 0.6,-6.9 1.9,-10.1 1.1,-2.7 3,-5.1 5.4,-6.8 2.4,-1.6 5.2,-2.4 8.1,-2.4 4.3,0 7.7,1.2 10.2,3.7 2.5,2.5 3.9,5.9 4.4,10.2 H 45.6 C 44.6,28.6 40.9,25 34.4,25 c -3.4,-0.1 -6.7,1.5 -8.7,4.3 -2.2,2.9 -3.2,6.9 -3.2,12 v 5.2 c 0,4.9 1,8.8 3.1,11.8 1.9,2.8 5.1,4.5 8.5,4.4 3.6,0 6.2,-0.9 8,-2.7 1.8,-1.8 2.9,-4.5 3.3,-8.1 z"
   id="path3863"
   inkscape:connector-curvature="0" />
	<path
   d="M 78.6,53.2 H 60.3 l -4.1,12 H 52.7 L 67.9,22.6 h 3.3 L 86.4,65.2 H 82.9 Z M 61.4,50.1 h 16.1 l -8,-23.2 z"
   id="path3865"
   inkscape:connector-curvature="0" />
	<path
   d="m 95.3,22.5 v 39.6 h 16 V 22.5 h 3.4 v 39.6 h 16 V 22.5 h 3.4 V 65.1 H 91.8 V 22.5 Z"
   id="path3867"
   inkscape:connector-curvature="0" />
	<path
   d="m 152.9,45.1 h -5.5 v 20 H 144 V 22.5 h 3.4 v 19.6 h 5.3 l 15.5,-19.6 h 4.3 l -16.5,21 17.7,21.7 h -4.2 z"
   id="path3869"
   inkscape:connector-curvature="0" />
	<path
   d="m 208.5,46.1 c 0.1,3.5 -0.6,7.1 -1.9,10.3 -1.1,2.8 -3,5.2 -5.5,6.9 -2.4,1.6 -5.3,2.5 -8.2,2.4 -4.4,0.1 -8.6,-1.9 -11.3,-5.4 -2.9,-3.6 -4.3,-8.4 -4.3,-14.4 v -4.4 c -0.1,-3.5 0.6,-7.1 2,-10.3 1.1,-2.8 3,-5.2 5.5,-6.9 5,-3.2 11.4,-3.2 16.3,0 2.4,1.7 4.3,4 5.5,6.7 1.3,3.2 2,6.6 2,10 z m -3.4,-4.6 c 0,-5.1 -1.1,-9.2 -3.3,-12.1 -3.8,-4.9 -11,-5.8 -15.9,-2 -0.7,0.6 -1.4,1.2 -2,2 -2.2,2.9 -3.3,7 -3.3,12.2 v 4.5 c 0,5.1 1.1,9.1 3.3,12 3.8,5 11,5.9 15.9,2 0.8,-0.6 1.4,-1.3 2,-2 2.1,-2.9 3.2,-6.9 3.2,-12.1 v -4.5 z"
   id="path3871"
   inkscape:connector-curvature="0" />
	<path
   d="m 25,95.5 c 0.7,0 1.4,-0.2 2,-0.6 0.5,-0.4 0.9,-1.1 0.9,-1.8 h 0.4 c 0,0.8 -0.4,1.6 -1,2.1 -0.7,0.5 -1.5,0.8 -2.4,0.8 -1,0 -2,-0.4 -2.7,-1.2 -0.7,-1 -1.1,-2.1 -1,-3.3 v -0.3 c -0.1,-1.2 0.3,-2.3 1,-3.3 0.7,-0.8 1.6,-1.3 2.7,-1.2 0.9,0 1.7,0.3 2.4,0.9 0.6,0.6 1,1.4 1,2.3 h -0.4 c 0,-0.7 -0.3,-1.4 -0.9,-1.9 -0.6,-0.5 -1.3,-0.8 -2.1,-0.7 -0.9,0 -1.8,0.4 -2.4,1.1 -0.6,0.9 -0.9,1.9 -0.9,3 v 0.3 c -0.1,1.1 0.2,2.1 0.9,3 0.7,0.5 1.5,0.9 2.5,0.8 z"
   id="path3873"
   inkscape:connector-curvature="0" />
	<path
   d="m 33.9,96 c -0.7,0 -1.4,-0.2 -2,-0.6 C 31.3,95 30.8,94.4 30.5,93.8 30.2,93.1 30,92.3 30,91.5 v -0.4 c 0,-0.8 0.2,-1.6 0.5,-2.3 0.3,-0.7 0.8,-1.2 1.4,-1.6 0.6,-0.4 1.2,-0.6 1.9,-0.6 0.9,0 1.9,0.4 2.5,1.1 0.7,0.8 1,1.8 1,2.8 V 91 h -6.8 v 0.5 c 0,0.7 0.2,1.4 0.5,2 0.3,0.6 0.7,1.1 1.3,1.5 0.5,0.3 1.1,0.5 1.8,0.5 0.5,0 1.1,-0.1 1.6,-0.3 0.4,-0.2 0.8,-0.5 1.1,-0.9 l 0.3,0.2 c -0.9,1 -2,1.6 -3.2,1.5 z m -0.2,-8.9 c -0.9,0 -1.7,0.4 -2.3,1 -0.6,0.7 -1,1.6 -1.1,2.5 h 6.3 v -0.1 c 0,-0.6 -0.1,-1.2 -0.4,-1.7 -0.2,-0.5 -0.6,-0.9 -1.1,-1.2 -0.3,-0.3 -0.9,-0.5 -1.4,-0.5 z"
   id="path3875"
   inkscape:connector-curvature="0" />
	<path
   d="m 46.2,91.4 c 0.1,1.2 -0.3,2.4 -0.9,3.3 -0.6,0.8 -1.5,1.3 -2.5,1.2 -0.6,0 -1.3,-0.1 -1.8,-0.4 -0.5,-0.3 -0.9,-0.7 -1.3,-1.1 v 4.8 H 39.3 V 86.8 h 0.4 v 1.6 c 0.3,-0.5 0.7,-1 1.3,-1.3 0.6,-0.3 1.2,-0.5 1.8,-0.5 1,0 1.9,0.4 2.5,1.2 0.7,1 1,2.2 0.9,3.4 z m -0.5,-0.2 c 0.1,-1.1 -0.2,-2.1 -0.8,-3 -0.5,-0.7 -1.3,-1.1 -2.2,-1.1 -0.7,0 -1.4,0.2 -1.9,0.6 -0.6,0.4 -1,1 -1.1,1.7 v 4.2 c 0.2,0.6 0.6,1.1 1.2,1.4 0.6,0.4 1.3,0.5 2,0.5 0.9,0 1.7,-0.4 2.2,-1.1 0.5,-0.9 0.7,-2 0.6,-3.2 z"
   id="path3877"
   inkscape:connector-curvature="0" />
	<path
   d="m 48.7,95.8 v -9 h 3.1 c 0.9,-0.1 1.8,0.2 2.5,0.6 0.9,0.7 1.1,2 0.4,3 0,0 0,0 0,0 -0.3,0.4 -0.8,0.7 -1.3,0.7 v 0 c 0.6,0.1 1.1,0.3 1.5,0.7 0.4,0.4 0.6,0.9 0.6,1.5 0,0.7 -0.3,1.4 -0.9,1.8 -0.7,0.5 -1.6,0.7 -2.4,0.6 z m 0.5,-4.7 H 52 c 0.7,0 1.5,-0.1 2.1,-0.5 0.5,-0.3 0.7,-0.9 0.7,-1.4 0,-0.6 -0.3,-1.1 -0.8,-1.4 -0.7,-0.3 -1.4,-0.5 -2.2,-0.4 h -2.7 z m 0,0.4 v 3.9 h 3.3 c 0.7,0 1.4,-0.1 2,-0.5 0.5,-0.3 0.8,-0.9 0.7,-1.5 0,-0.6 -0.3,-1.1 -0.8,-1.4 -0.6,-0.4 -1.3,-0.6 -2,-0.5 z"
   id="path3879"
   inkscape:connector-curvature="0" />
	<path
   d="m 64.1,86.8 h 0.5 v 9 h -0.5 v -8.2 l -5.6,8.2 H 58 v -9 h 0.5 V 95 Z"
   id="path3881"
   inkscape:connector-curvature="0" />
	<path
   d="m 70.5,95.5 c 0.7,0 1.4,-0.2 2,-0.6 0.5,-0.4 0.9,-1.1 0.9,-1.8 h 0.5 c 0,0.8 -0.4,1.6 -1,2.1 -0.7,0.5 -1.5,0.8 -2.4,0.8 -1,0 -2,-0.4 -2.7,-1.2 -0.7,-1 -1.1,-2.1 -1,-3.3 v -0.3 c -0.1,-1.2 0.3,-2.3 1,-3.3 0.7,-0.8 1.6,-1.3 2.7,-1.2 0.9,0 1.7,0.3 2.4,0.9 0.6,0.6 1,1.4 1,2.3 h -0.5 c 0,-0.7 -0.3,-1.4 -0.9,-1.9 -0.6,-0.5 -1.3,-0.8 -2.1,-0.7 -0.9,0 -1.8,0.4 -2.4,1.1 -0.6,0.9 -0.9,1.9 -0.9,3 v 0.3 c -0.1,1.1 0.2,2.1 0.9,3 0.7,0.5 1.6,0.9 2.5,0.8 z"
   id="path3883"
   inkscape:connector-curvature="0" />
	<path
   d="M 79.9,95.4 80.2,95 c 0.9,-1.4 1.4,-3.1 1.4,-4.8 l 0.2,-3.3 h 4.9 v 8.5 h 0.7 v 3.1 H 87 v -2.6 h -7.3 v 2.6 h -0.4 v -3.1 z m 0.6,0 h 5.8 v -8.1 h -4 l -0.2,3 c 0,1.8 -0.6,3.6 -1.6,5.1 z"
   id="path3885"
   inkscape:connector-curvature="0" />
	<path
   d="m 96.1,86.8 v 9 H 95.6 V 87.3 H 91.2 L 91,91.5 c 0,1.2 -0.2,2.3 -0.6,3.4 -0.3,0.6 -1,1 -1.6,1 h -0.3 v -0.5 h 0.4 c 0.6,0 1.1,-0.4 1.3,-0.9 0.3,-0.9 0.5,-1.9 0.5,-2.9 l 0.2,-4.8 z"
   id="path3887"
   inkscape:connector-curvature="0" />
	<path
   d="m 105.3,86.8 v 9 h -0.5 v -3.7 h -3.3 l -2.3,3.7 H 98.7 L 101,92 c -0.6,-0.1 -1.2,-0.4 -1.5,-0.9 -0.4,-0.5 -0.6,-1.1 -0.6,-1.7 0,-0.7 0.3,-1.4 0.8,-1.9 0.6,-0.5 1.4,-0.8 2.2,-0.7 z m -6,2.7 c 0,0.6 0.2,1.1 0.6,1.6 0.4,0.4 1,0.6 1.6,0.6 h 3.3 v -4.3 h -2.9 c -0.7,0 -1.4,0.2 -1.9,0.6 -0.5,0.3 -0.7,0.9 -0.7,1.5 z"
   id="path3889"
   inkscape:connector-curvature="0" />
	<path
   d="m 118,89.1 c 0,-0.6 -0.2,-1.1 -0.7,-1.5 -0.6,-0.4 -1.3,-0.6 -2.1,-0.5 -0.7,0 -1.4,0.2 -2,0.6 -0.5,0.3 -0.8,0.9 -0.8,1.5 h -0.5 c 0,-0.7 0.4,-1.4 1,-1.8 0.7,-0.5 1.5,-0.7 2.3,-0.7 0.8,-0.1 1.7,0.2 2.4,0.7 0.6,0.4 0.9,1.1 0.9,1.8 0,0.5 -0.2,0.9 -0.5,1.3 -0.3,0.4 -0.8,0.7 -1.3,0.8 1.1,0.1 2,1.1 1.9,2.2 0,0.7 -0.3,1.4 -0.9,1.9 -0.7,0.5 -1.6,0.7 -2.5,0.7 -0.6,0 -1.2,-0.1 -1.7,-0.3 -0.5,-0.2 -0.9,-0.5 -1.3,-0.9 -0.3,-0.4 -0.5,-0.9 -0.5,-1.4 h 0.5 c 0,0.6 0.3,1.2 0.8,1.6 0.6,0.4 1.4,0.7 2.1,0.6 0.8,0 1.5,-0.1 2.2,-0.6 0.5,-0.4 0.8,-0.9 0.7,-1.5 0.1,-0.6 -0.2,-1.2 -0.7,-1.5 -0.7,-0.4 -1.4,-0.5 -2.2,-0.5 H 114 V 91 h 1.4 c 1.7,0 2.6,-0.6 2.6,-1.9 z"
   id="path3891"
   inkscape:connector-curvature="0" />
	<path
   d="m 126.9,95.8 c -0.1,-0.5 -0.2,-1.1 -0.2,-1.6 -0.4,0.6 -0.9,1 -1.5,1.3 -0.7,0.3 -1.4,0.5 -2.1,0.5 -0.7,0 -1.4,-0.2 -2,-0.7 -1,-0.9 -1,-2.4 -0.1,-3.3 0.1,-0.2 0.3,-0.3 0.5,-0.4 0.9,-0.5 1.9,-0.8 3,-0.8 h 2.2 v -1.3 c 0,-0.7 -0.2,-1.3 -0.7,-1.8 -0.6,-0.4 -1.3,-0.7 -2,-0.6 -0.7,0 -1.5,0.2 -2.1,0.6 -0.5,0.4 -0.8,0.9 -0.8,1.6 h -0.5 c 0,-0.7 0.4,-1.4 1,-1.9 0.7,-0.5 1.5,-0.8 2.4,-0.8 0.8,0 1.7,0.2 2.3,0.7 0.6,0.5 0.9,1.3 0.9,2 v 4.3 c 0,0.7 0,1.4 0.2,2 v 0.1 h -0.5 z m -3.8,-0.3 c 0.8,0 1.5,-0.2 2.2,-0.6 0.6,-0.4 1.1,-0.9 1.4,-1.6 v -2.1 h -2.1 c -1.1,-0.1 -2.1,0.2 -3,0.8 -0.5,0.3 -0.8,0.9 -0.8,1.5 0,0.5 0.2,1.1 0.7,1.4 0.4,0.5 1,0.7 1.6,0.6 z"
   id="path3893"
   inkscape:connector-curvature="0" />
	<path
   d="m 132.2,91.4 h -1.7 v 4.4 h -0.4 v -9 h 0.5 V 91 h 1.8 l 3.6,-4.1 h 0.7 l -3.9,4.4 4.4,4.6 h -0.7 z"
   id="path3895"
   inkscape:connector-curvature="0" />
	<path
   d="m 144.4,95.8 c -0.1,-0.5 -0.2,-1.1 -0.2,-1.6 -0.4,0.6 -0.9,1 -1.5,1.3 -0.7,0.3 -1.4,0.5 -2.1,0.5 -0.7,0 -1.4,-0.2 -2,-0.7 -1,-0.9 -1,-2.4 -0.1,-3.3 0.1,-0.2 0.3,-0.3 0.5,-0.4 0.9,-0.5 1.9,-0.8 3,-0.8 h 2.2 v -1.3 c 0,-0.7 -0.2,-1.3 -0.7,-1.8 -0.6,-0.5 -1.3,-0.7 -2,-0.6 -0.7,0 -1.5,0.2 -2.1,0.6 -0.5,0.4 -0.8,0.9 -0.8,1.6 h -0.5 c 0,-0.7 0.4,-1.4 1,-1.9 0.7,-0.5 1.5,-0.8 2.4,-0.8 0.8,0 1.7,0.2 2.3,0.7 0.6,0.5 0.9,1.3 0.9,2 v 4.3 c 0,0.7 0,1.4 0.2,2 v 0.1 h -0.5 z m -3.7,-0.3 c 0.8,0 1.5,-0.2 2.2,-0.6 0.6,-0.4 1.1,-0.9 1.4,-1.6 v -2.1 h -2.1 c -1.1,-0.1 -2.1,0.2 -3,0.8 -0.5,0.3 -0.8,0.9 -0.8,1.5 0,0.5 0.2,1.1 0.7,1.4 0.4,0.5 1,0.7 1.6,0.6 z"
   id="path3897"
   inkscape:connector-curvature="0" />
	<path
   d="m 153.3,89.1 c 0,-0.6 -0.2,-1.1 -0.7,-1.5 -0.6,-0.4 -1.3,-0.6 -2.1,-0.5 -0.7,0 -1.4,0.2 -2,0.6 -0.5,0.3 -0.8,0.9 -0.8,1.5 h -0.5 c 0,-0.7 0.4,-1.4 1,-1.8 0.7,-0.5 1.5,-0.7 2.3,-0.7 0.8,-0.1 1.7,0.2 2.4,0.7 0.6,0.4 0.9,1.1 0.8,1.8 0,0.5 -0.2,0.9 -0.5,1.3 -0.3,0.4 -0.8,0.7 -1.3,0.8 1.1,0.1 2,1.1 1.9,2.2 0,0.7 -0.3,1.4 -0.9,1.9 -0.7,0.5 -1.6,0.7 -2.5,0.7 -0.6,0 -1.2,-0.1 -1.7,-0.3 -0.5,-0.2 -0.9,-0.5 -1.3,-0.9 -0.3,-0.4 -0.5,-0.9 -0.5,-1.4 h 0.5 c 0,0.6 0.3,1.2 0.8,1.6 0.6,0.4 1.4,0.7 2.1,0.6 0.8,0.1 1.5,-0.1 2.2,-0.6 0.5,-0.4 0.8,-0.9 0.7,-1.5 0.1,-0.6 -0.2,-1.2 -0.7,-1.5 -0.7,-0.4 -1.4,-0.5 -2.2,-0.5 H 149 V 91 h 1.4 c 2,0 2.9,-0.6 2.9,-1.9 z"
   id="path3899"
   inkscape:connector-curvature="0" />
	<path
   d="m 162.2,95.8 c -0.1,-0.5 -0.2,-1.1 -0.2,-1.6 -0.4,0.6 -0.9,1 -1.5,1.3 -0.7,0.3 -1.4,0.5 -2.1,0.5 -0.7,0 -1.4,-0.2 -2,-0.7 -1,-0.9 -1,-2.4 -0.1,-3.3 0.1,-0.2 0.3,-0.3 0.5,-0.4 0.9,-0.5 1.9,-0.8 3,-0.8 h 2.2 v -1.3 c 0,-0.7 -0.2,-1.3 -0.7,-1.8 -0.6,-0.4 -1.3,-0.7 -2,-0.6 -0.7,0 -1.5,0.2 -2.1,0.6 -0.5,0.4 -0.8,0.9 -0.8,1.6 h -0.5 c 0,-0.7 0.4,-1.4 1,-1.9 0.7,-0.5 1.5,-0.8 2.4,-0.8 0.8,0 1.7,0.2 2.3,0.7 0.6,0.5 0.9,1.3 0.9,2 v 4.3 c 0,0.7 0,1.4 0.2,2 v 0.1 h -0.5 z m -3.8,-0.3 c 0.8,0 1.5,-0.2 2.2,-0.6 0.6,-0.4 1.1,-0.9 1.4,-1.6 v -2.1 h -2.1 c -1.1,-0.1 -2.1,0.2 -3,0.8 -0.5,0.3 -0.8,0.9 -0.8,1.5 0,0.5 0.2,1.1 0.7,1.4 0.4,0.5 1,0.7 1.6,0.6 z"
   id="path3901"
   inkscape:connector-curvature="0" />
	<path
   d="m 175.6,86.8 h 0.5 v 9 h -0.5 v -8.2 l -5.6,8.2 h -0.5 v -9 H 170 V 95 Z"
   id="path3903"
   inkscape:connector-curvature="0" />
	<path
   d="m 185.4,86.8 v 9 H 185 v -8.5 h -4.3 l -0.2,4.2 c 0,1.2 -0.2,2.3 -0.6,3.4 -0.3,0.6 -1,1 -1.6,1 H 178 v -0.5 h 0.4 c 0.6,0 1.1,-0.4 1.3,-0.9 0.3,-0.9 0.5,-1.9 0.5,-2.9 l 0.2,-4.8 z"
   id="path3905"
   inkscape:connector-curvature="0" />
	<path
   d="m 194.8,86.8 v 9 h -0.5 V 87.3 H 190 l -0.2,4.2 c 0,1.2 -0.2,2.3 -0.6,3.4 -0.3,0.6 -1,1 -1.6,1 h -0.3 v -0.5 h 0.4 c 0.6,0 1.1,-0.4 1.3,-0.9 0.3,-0.9 0.5,-1.9 0.5,-2.9 l 0.2,-4.8 z"
   id="path3907"
   inkscape:connector-curvature="0" />
	<path
   d="m 198.2,91.2 h 3 c -0.1,-1.2 0.3,-2.4 1.1,-3.3 0.7,-0.8 1.8,-1.3 2.9,-1.3 0.7,0 1.4,0.2 2,0.6 0.6,0.4 1.1,0.9 1.4,1.6 0.3,0.7 0.5,1.5 0.5,2.3 v 0.4 c 0,0.8 -0.2,1.6 -0.5,2.3 -0.3,0.7 -0.8,1.2 -1.4,1.6 -0.6,0.4 -1.3,0.6 -2.1,0.6 -1.4,0 -2.8,-0.8 -3.4,-2.1 -0.4,-0.7 -0.5,-1.5 -0.5,-2.3 h -3 v 4.2 h -0.5 v -9 h 0.5 z m 3.5,0.3 c 0,0.7 0.1,1.4 0.5,2.1 0.3,0.6 0.7,1.1 1.3,1.5 0.5,0.3 1.2,0.5 1.8,0.5 1,0 1.9,-0.4 2.5,-1.2 0.7,-0.8 1,-1.9 1,-3 v -0.3 c 0,-0.7 -0.2,-1.4 -0.5,-2 -0.3,-0.6 -0.7,-1.1 -1.3,-1.5 -0.5,-0.4 -1.2,-0.5 -1.8,-0.5 -1,0 -1.9,0.4 -2.5,1.2 -0.7,0.8 -1,1.9 -1,3 z"
   id="path3909"
   inkscape:connector-curvature="0" />
	<path
   d="m 214.7,95.5 c 0.7,0 1.4,-0.2 2,-0.6 0.5,-0.4 0.9,-1.1 0.9,-1.8 h 0.6 c 0,0.8 -0.4,1.6 -1,2.1 -0.7,0.5 -1.5,0.8 -2.4,0.8 -1,0 -2,-0.4 -2.7,-1.2 -0.7,-1 -1.1,-2.1 -1,-3.3 v -0.3 c -0.1,-1.2 0.3,-2.3 1,-3.3 0.7,-0.8 1.7,-1.3 2.7,-1.2 0.9,0 1.7,0.3 2.4,0.9 0.6,0.6 1,1.4 1,2.3 h -0.5 c 0,-0.7 -0.3,-1.4 -0.9,-1.9 -0.6,-0.5 -1.3,-0.8 -2.1,-0.7 -0.9,0 -1.8,0.4 -2.4,1.1 -0.6,0.9 -0.9,1.9 -0.9,3 v 0.3 c -0.1,1.1 0.2,2.1 0.9,3 0.6,0.5 1.5,0.9 2.4,0.8 z"
   id="path3911"
   inkscape:connector-curvature="0" />
	<path
   d="M 226.6,87.3 H 223 v 8.5 h -0.5 v -8.5 h -3.4 v -0.5 h 7.4 z"
   id="path3913"
   inkscape:connector-curvature="0" />
	<path
   d="m 235.3,91.4 c 0.1,1.2 -0.3,2.4 -0.9,3.3 -0.6,0.8 -1.5,1.3 -2.5,1.2 -0.6,0 -1.3,-0.1 -1.8,-0.4 -0.5,-0.3 -1,-0.7 -1.3,-1.1 v 4.8 h -0.5 V 86.8 h 0.5 v 1.6 c 0.3,-0.5 0.7,-1 1.3,-1.3 0.6,-0.3 1.2,-0.5 1.8,-0.5 1,0 1.9,0.4 2.5,1.2 0.7,1 1,2.2 0.9,3.4 z m -0.4,-0.2 c 0.1,-1.1 -0.2,-2.1 -0.8,-3 -0.5,-0.7 -1.3,-1.1 -2.2,-1.1 -1.4,-0.1 -2.7,0.9 -3.1,2.3 v 4.2 c 0.2,0.6 0.6,1.1 1.1,1.4 0.6,0.4 1.3,0.5 2,0.5 0.9,0 1.7,-0.4 2.2,-1.1 0.6,-0.9 0.8,-2 0.8,-3.2 z"
   id="path3915"
   inkscape:connector-curvature="0" />
	<path
   d="m 243.7,95.8 c -0.1,-0.5 -0.2,-1.1 -0.2,-1.6 -0.4,0.6 -0.9,1 -1.5,1.3 -0.7,0.3 -1.4,0.5 -2.1,0.5 -0.7,0 -1.4,-0.2 -2,-0.7 -1,-0.9 -1,-2.3 -0.2,-3.3 0.2,-0.2 0.3,-0.3 0.5,-0.4 0.9,-0.5 1.9,-0.8 3,-0.8 h 2.2 v -1.3 c 0,-0.7 -0.2,-1.3 -0.7,-1.8 -0.6,-0.4 -1.3,-0.7 -2,-0.6 -0.7,0 -1.5,0.2 -2.1,0.6 -0.5,0.3 -0.8,0.9 -0.8,1.6 h -0.5 c 0,-0.7 0.4,-1.4 1,-1.9 0.7,-0.5 1.5,-0.8 2.4,-0.8 0.8,0 1.7,0.2 2.3,0.7 0.6,0.5 0.9,1.3 0.9,2 v 4.3 c 0,0.7 0,1.4 0.2,2 v 0.1 h -0.4 z m -3.8,-0.3 c 0.8,0 1.5,-0.2 2.2,-0.6 0.6,-0.4 1.1,-0.9 1.4,-1.6 v -2.1 h -2.1 c -1.1,-0.1 -2.1,0.2 -3,0.8 -0.5,0.3 -0.8,0.9 -0.8,1.5 0,0.5 0.2,1.1 0.7,1.4 0.4,0.5 1,0.7 1.6,0.6 z"
   id="path3917"
   inkscape:connector-curvature="0" />
	<path
   d="m 246.9,86.8 h 0.5 v 8.5 h 5.6 v -8.5 h 0.5 v 8.5 h 0.7 v 3.1 h -0.5 v -2.6 h -6.8 z"
   id="path3919"
   inkscape:connector-curvature="0" />
	<path
   d="m 262.3,86.8 h 0.5 v 9 h -0.5 v -8.2 l -5.6,8.2 h -0.5 v -9 h 0.5 V 95 Z"
   id="path3921"
   inkscape:connector-curvature="0" />
	<path
   d="m 271.7,86.8 h 0.5 v 9 h -0.5 v -8.2 l -5.6,8.2 h -0.5 v -9 h 0.5 V 95 Z m -0.5,-3.2 c 0,0.6 -0.2,1.1 -0.6,1.5 -0.5,0.4 -1.1,0.6 -1.7,0.6 -0.6,0 -1.2,-0.2 -1.7,-0.6 -0.4,-0.4 -0.7,-0.9 -0.6,-1.5 h 0.5 c 0,0.4 0.2,0.9 0.5,1.2 0.4,0.3 0.9,0.5 1.4,0.4 0.5,0 1,-0.1 1.4,-0.4 0.3,-0.3 0.5,-0.7 0.5,-1.2 z"
   id="path3923"
   inkscape:connector-curvature="0" />
</g>
</svg>