<?xml version="1.0" encoding="utf-8"?>
<!-- Generator: Adobe Illustrator 22.1.0, SVG Export Plug-In . SVG Version: 6.00 Build 0)  -->
<svg version="1.1" id="Слой_1" xmlns="http://www.w3.org/2000/svg" xmlns:xlink="http://www.w3.org/1999/xlink" x="0px" y="0px"
	 viewBox="0 0 548.3 217.9" style="enable-background:new 0 0 548.3 217.9;" xml:space="preserve">
<style type="text/css">
	.st0{fill:#FFFFFF;}
</style>
<g>
	<g id="Слой_1_1_">
		<path class="st0" d="M464.4,16.2c4.8,1.3,9.7,2.7,14.5,3.8c12.3,2.9,20.4,11.1,22.5,22.7c2.5,13.4,4.7,27.4-0.2,41.2
			c-1.8,4.8-0.7,10.7-1.6,15.9c-0.5,2.5-2.3,6.1-4.1,6.4c-9.7,2.1-19.7,3.4-29.2,4.8c-3.2-8.8,0-10.7,6.3-11.6
			c5.5-0.9,13.2,0.5,14.5-8.9c-11.1,2.5-19.5-0.2-24.9-10.7c-0.5-1.3-7.3-1.4-8.4,0c-8.9,12.7-13.1,14.3-27.4,8.4
			c0,7.9,4.8,10.6,10.9,11.8c4.3,0.9,8.9,0.7,13.2,2c2,0.5,3.2,3.2,4.8,5c-1.8,1.4-3.6,4.3-5.2,4.3c-10.7-0.5-21.3-1.4-31.9-2.9
			c-1.6-0.2-3.6-3.9-3.8-6.1c-1.1-18.6-2-37.2-2.5-55.7c-0.4-10.7,6.3-17.7,14.7-22.9c5.2-2.9,10.6-5.4,15.9-7.7L464.4,16.2z
			 M452.6,74.2c7.2-0.7,11.6,0.9,15.6,7.2c2.1,3.6,8.8,5.4,13.6,5.7c1.8,0,3.9-6.6,5.7-10.4c1.1-1.6,1.6-3.6,1.8-5.5
			c-0.4-3.8-0.2-8.8-2.5-10.7c-6.3-5.9-13.6-10.6-20.6-15.7c-4.5-3.4-8.1-2.9-12.5,0.5c-7.2,5.4-15.2,9.5-22.4,14.7
			c-2.5,2-4.3,4.8-4.8,8.1c-0.7,3.8-0.4,7.7,1.1,11.5c2,3.8,5.7,8.6,8.9,8.9c4.1,0.4,8.9-2.9,12.7-5.5
			C451.2,81,451.6,77.3,452.6,74.2L452.6,74.2z M492.9,82.1c8.1,0.4,8.9-4.8,8.6-9.5c-0.2-1.8-3.9-3.4-7.9-6.6
			C493.3,73.3,493.1,77.3,492.9,82.1z M422.8,65.8c-2.9,1.8-7,3.6-6.8,4.1c1.3,3.4,2.7,6.4,4.5,9.5l2.3-1.1V65.8z"/>
		<path class="st0" d="M476.4,64.2c1.6,4.3,3,7.9,1.1,14c-0.4,0.9-1.4,1.4-2.3,1.1c-0.2,0-0.4-0.2-0.5-0.4c-5.9-5.7-5.2-10.2-1.1-15
			c0.7-0.7,1.8-0.7,2.5-0.2C476.3,63.8,476.3,64,476.4,64.2z"/>
		<path class="st0" d="M439,78.3c-2.7-3.9-3-9.1-1.1-13.6c0.4-1.1,1.6-1.4,2.7-1.1c0.2,0.2,0.5,0.2,0.7,0.5
			c5.2,5.2,3.9,9.7,1.1,14.1C441.4,79.1,440.6,79.1,439,78.3z"/>
		<path class="st0" d="M459.4,97c-0.2,0-0.4,0-0.6,0c-3.8-0.4-7.3-1.6-10.8-3.7l0.9-1.5c3.3,2,6.5,3.1,10,3.5
			c4.5,0.3,9.1-4.3,9.1-4.4l1.3,1.2C469.2,92.2,464.6,97,459.4,97z"/>
	</g>
	<g id="Слой_2_1_">
		<path class="st0" d="M109.1,85.8c-0.9,8.1-3.6,14.1-8.1,18.4c-4.7,4.3-10.7,6.4-18.4,6.4c-5,0-10-1.4-14.1-4.3
			c-4.3-3-7.5-7.2-9.5-12c-2.3-5.7-3.4-11.6-3.4-17.7v-9.8c-0.2-6.3,1.1-12.3,3.4-18.1c2-4.8,5.4-9.1,9.7-12.2
			c4.3-2.9,9.3-4.3,14.5-4.3c7.7,0,13.8,2.1,18.3,6.6s7,10.6,7.9,18.3h-6.1c-1.8-12.9-8.4-19.3-20-19.3c-6.1-0.2-12,2.7-15.6,7.7
			C63.8,50.7,62,57.8,62,67v9.3c0,8.8,1.8,15.7,5.5,21.1c3.4,5,9.1,8.1,15.2,7.9c6.4,0,11.1-1.6,14.3-4.8s5.2-8.1,5.9-14.5
			L109.1,85.8z"/>
		<path class="st0" d="M162.3,88.3h-32.7l-7.3,21.5H116l27.2-76.2h5.9l27.2,76.2H170L162.3,88.3z M131.5,82.8h28.8L146,41.3
			L131.5,82.8z"/>
		<path class="st0" d="M192.2,33.4v70.9h28.6V33.4h6.1v70.9h28.6V33.4h6.1v76.2h-75.7V33.4H192.2z"/>
		<path class="st0" d="M295.2,73.9h-9.8v35.8h-6.1V33.4h6.1v35.1h9.5l27.7-35.1h7.7L300.8,71l31.7,38.8H325L295.2,73.9z"/>
		<path class="st0" d="M394.7,75.6c0.2,6.3-1.1,12.7-3.4,18.4c-2,5-5.4,9.3-9.8,12.3c-4.3,2.9-9.5,4.5-14.7,4.3
			c-7.9,0.2-15.4-3.4-20.2-9.7c-5.2-6.4-7.7-15-7.7-25.8v-7.9c-0.2-6.3,1.1-12.7,3.6-18.4c2-5,5.4-9.3,9.8-12.3
			c8.9-5.7,20.4-5.7,29.2,0c4.3,3,7.7,7.2,9.8,12c2.3,5.7,3.6,11.8,3.6,17.9L394.7,75.6z M388.7,67.4c0-9.1-2-16.5-5.9-21.7
			c-6.8-8.8-19.7-10.4-28.5-3.6c-1.3,1.1-2.5,2.1-3.6,3.6c-3.9,5.2-5.9,12.5-5.9,21.8v8.1c0,9.1,2,16.3,5.9,21.5
			c6.8,8.9,19.7,10.6,28.5,3.6c1.4-1.1,2.5-2.3,3.6-3.6c3.8-5.2,5.7-12.3,5.7-21.7v-8.1h0.2V67.4z"/>
	</g>
</g>
</svg>
